<svg width="140" height="43" viewBox="0 0 140 43" fill="none" xmlns="http://www.w3.org/2000/svg">
<g filter="url(#filter0_b_87_3)">
<rect width="140" height="43" rx="21.5" fill="#F2526E"/>
</g>
<path d="M25.3809 26.502C25.3809 26.4954 25.3841 26.4824 25.3906 26.4629C25.3971 26.4368 25.4199 26.4238 25.459 26.4238H25.6738C25.9473 26.4043 26.2272 26.3945 26.5137 26.3945C26.8001 26.388 27.0605 26.3522 27.2949 26.2871C27.5293 26.2155 27.7214 26.0951 27.8711 25.9258C28.0208 25.75 28.0957 25.4798 28.0957 25.1152V15.1152C28.0957 14.8613 28.0436 14.6562 27.9395 14.5C27.8353 14.3372 27.6986 14.207 27.5293 14.1094C27.36 14.0117 27.168 13.9401 26.9531 13.8945C26.7383 13.8424 26.5202 13.8001 26.2988 13.7676H26.0938C26.0612 13.7676 26.0384 13.7578 26.0254 13.7383C26.0189 13.7188 26.0156 13.7025 26.0156 13.6895V13.3086C26.0156 13.2956 26.0189 13.2793 26.0254 13.2598C26.0384 13.2402 26.0612 13.2305 26.0938 13.2305H35.8203C35.9375 13.2305 36.0221 13.2533 36.0742 13.2988C36.1263 13.3379 36.1589 13.429 36.1719 13.5723L36.3477 16.6973C36.3477 16.7298 36.3184 16.7559 36.2598 16.7754C36.2077 16.7884 36.1589 16.7949 36.1133 16.7949C36.0612 16.7949 36.0091 16.7884 35.957 16.7754C35.9049 16.7624 35.8691 16.7428 35.8496 16.7168C35.804 16.6517 35.7715 16.5573 35.752 16.4336C35.7324 16.3034 35.7096 16.1602 35.6836 16.0039C35.6641 15.8477 35.6315 15.6849 35.5859 15.5156C35.5469 15.3464 35.485 15.1901 35.4004 15.0469C35.3158 14.9036 35.1986 14.7799 35.0488 14.6758C34.9056 14.5651 34.7201 14.4902 34.4922 14.4512H31.0059C30.9212 14.4512 30.8789 14.4935 30.8789 14.5781V19.2363C30.8789 19.3014 30.9115 19.334 30.9766 19.334H33.7695C33.9323 19.334 34.0918 19.3145 34.248 19.2754C34.4108 19.2298 34.5508 19.1517 34.668 19.041C34.7917 18.9303 34.8893 18.7773 34.9609 18.582C35.0391 18.3802 35.0781 18.123 35.0781 17.8105C35.0781 17.7585 35.1042 17.7324 35.1562 17.7324H35.5371C35.5892 17.7324 35.6152 17.7585 35.6152 17.8105V22.2832C35.6152 22.3158 35.6055 22.3385 35.5859 22.3516C35.5664 22.3581 35.5501 22.3613 35.5371 22.3613H35.1562C35.1237 22.3613 35.1009 22.3516 35.0879 22.332C35.0814 22.3125 35.0781 22.2962 35.0781 22.2832C35.0781 21.9186 35.0391 21.6257 34.9609 21.4043C34.8893 21.1764 34.7917 21.0007 34.668 20.877C34.5443 20.7467 34.401 20.6621 34.2383 20.623C34.082 20.5775 33.916 20.5547 33.7402 20.5547H30.9766C30.9115 20.5547 30.8789 20.5872 30.8789 20.6523V24.9199C30.8789 25.1087 30.9082 25.2617 30.9668 25.3789C31.0254 25.4896 31.1035 25.5742 31.2012 25.6328C31.3053 25.6914 31.4225 25.7305 31.5527 25.75C31.6829 25.7695 31.8197 25.7793 31.9629 25.7793H34.6289C35.0065 25.7793 35.3223 25.6947 35.5762 25.5254C35.8301 25.3496 36.0352 25.138 36.1914 24.8906C36.3477 24.6432 36.4616 24.3861 36.5332 24.1191C36.6113 23.8522 36.6602 23.6243 36.6797 23.4355C36.6927 23.3509 36.735 23.2858 36.8066 23.2402C36.8783 23.1882 36.9596 23.1621 37.0508 23.1621C37.0833 23.1621 37.1224 23.1751 37.168 23.2012C37.2135 23.2272 37.2363 23.2565 37.2363 23.2891L36.9141 26.8633C36.901 26.8958 36.8815 26.9284 36.8555 26.9609C36.8359 26.987 36.8099 27 36.7773 27H25.459C25.4199 27 25.3971 26.9902 25.3906 26.9707C25.3841 26.9447 25.3809 26.9284 25.3809 26.9219V26.7852V26.502ZM38.7695 27C38.7565 27 38.7402 26.9935 38.7207 26.9805C38.7012 26.9609 38.6914 26.9414 38.6914 26.9219V26.4922C38.6914 26.4401 38.7174 26.4141 38.7695 26.4141C38.8411 26.4141 38.9225 26.4141 39.0137 26.4141C39.1048 26.4141 39.1927 26.4108 39.2773 26.4043C39.3685 26.3978 39.4499 26.3913 39.5215 26.3848C39.5931 26.3783 39.6484 26.3652 39.6875 26.3457C39.8503 26.2676 39.9837 26.1634 40.0879 26.0332C40.1921 25.903 40.2702 25.7533 40.3223 25.584C40.3809 25.4147 40.4199 25.2292 40.4395 25.0273C40.459 24.8255 40.4688 24.6107 40.4688 24.3828V14.627C40.4688 14.4512 40.3971 14.3112 40.2539 14.207C40.1172 14.0964 39.9544 14.015 39.7656 13.9629C39.5833 13.9043 39.3945 13.8652 39.1992 13.8457C39.0104 13.8262 38.8672 13.8164 38.7695 13.8164C38.737 13.8164 38.7142 13.8066 38.7012 13.7871C38.6947 13.7676 38.6914 13.7513 38.6914 13.7383V13.3086C38.6914 13.2956 38.6947 13.2793 38.7012 13.2598C38.7142 13.2402 38.737 13.2305 38.7695 13.2305H43.1934L51.6113 22.5469C51.6439 22.5794 51.6667 22.6055 51.6797 22.625C51.6927 22.638 51.709 22.6445 51.7285 22.6445C51.7546 22.6445 51.7708 22.6348 51.7773 22.6152C51.7839 22.5957 51.7871 22.5762 51.7871 22.5566V16.7559C51.7871 16.1113 51.7643 15.597 51.7188 15.2129C51.6732 14.8223 51.5885 14.526 51.4648 14.3242C51.3411 14.1159 51.1751 13.9792 50.9668 13.9141C50.7585 13.849 50.4915 13.8164 50.166 13.8164H49.668C49.6354 13.8164 49.6126 13.8066 49.5996 13.7871C49.5931 13.7676 49.5898 13.7513 49.5898 13.7383V13.3086C49.5898 13.2956 49.5931 13.2793 49.5996 13.2598C49.6126 13.2402 49.6354 13.2305 49.668 13.2305H55.0391C55.0781 13.2305 55.1009 13.2402 55.1074 13.2598C55.1139 13.2793 55.1172 13.2956 55.1172 13.3086V13.7383C55.1172 13.7513 55.1107 13.7676 55.0977 13.7871C55.0911 13.8066 55.0716 13.8164 55.0391 13.8164C54.9089 13.8164 54.7396 13.8424 54.5312 13.8945C54.3294 13.9466 54.1309 14.0215 53.9355 14.1191C53.7402 14.2168 53.571 14.3372 53.4277 14.4805C53.291 14.6237 53.2227 14.7865 53.2227 14.9688V26.5215C53.2227 26.6322 53.1966 26.7266 53.1445 26.8047C53.0924 26.8763 53.0241 26.9349 52.9395 26.9805C52.8613 27.026 52.7734 27.0586 52.6758 27.0781C52.5846 27.1042 52.5 27.1172 52.4219 27.1172C52.2917 27.1172 52.1387 27.0879 51.9629 27.0293C51.7936 26.9772 51.6243 26.8568 51.4551 26.668L42.2363 16.4434C42.1908 16.3978 42.1582 16.3717 42.1387 16.3652C42.1191 16.3522 42.0931 16.3457 42.0605 16.3457C42.028 16.3457 42.0117 16.3783 42.0117 16.4434V25.1641C42.0117 25.3464 42.054 25.5059 42.1387 25.6426C42.2298 25.7728 42.3438 25.8867 42.4805 25.9844C42.6172 26.0755 42.7669 26.1504 42.9297 26.209C43.099 26.2611 43.2617 26.3034 43.418 26.3359C43.5807 26.3685 43.724 26.3913 43.8477 26.4043C43.9779 26.4108 44.0755 26.4141 44.1406 26.4141C44.1732 26.4141 44.196 26.4271 44.209 26.4531C44.2155 26.4661 44.2188 26.4792 44.2188 26.4922V26.9219C44.2188 26.9349 44.2122 26.9512 44.1992 26.9707C44.1927 26.9902 44.1732 27 44.1406 27H38.7695ZM61.4062 14.7246C61.4062 14.5879 61.377 14.513 61.3184 14.5C61.2663 14.4805 61.2012 14.4642 61.123 14.4512H57.8125C57.5716 14.5033 57.3828 14.6009 57.2461 14.7441C57.1094 14.8809 57.002 15.0436 56.9238 15.2324C56.8457 15.4212 56.7871 15.6263 56.748 15.8477C56.709 16.0625 56.6667 16.2708 56.6211 16.4727C56.6081 16.5312 56.5951 16.6029 56.582 16.6875C56.569 16.7656 56.556 16.8112 56.543 16.8242C56.5299 16.8438 56.5072 16.8535 56.4746 16.8535H56.1523C56.1133 16.8535 56.0938 16.8405 56.0938 16.8145V16.4922L56.4551 13.1523C56.4681 13.0807 56.4974 13.0124 56.543 12.9473C56.5885 12.8822 56.6602 12.8496 56.7578 12.8496C56.8034 12.8496 56.8457 12.8626 56.8848 12.8887C56.9303 12.9147 56.9727 12.9473 57.0117 12.9863C57.0508 13.0189 57.0866 13.0514 57.1191 13.084C57.1582 13.1165 57.1973 13.1393 57.2363 13.1523C57.3145 13.1849 57.3861 13.2077 57.4512 13.2207C57.5228 13.2272 57.6009 13.2305 57.6855 13.2305H67.9199C68.0046 13.2305 68.0794 13.2272 68.1445 13.2207C68.2161 13.2077 68.291 13.1849 68.3691 13.1523C68.4082 13.1393 68.444 13.1165 68.4766 13.084C68.5156 13.0514 68.5547 13.0189 68.5938 12.9863C68.6328 12.9473 68.6719 12.9147 68.7109 12.8887C68.7565 12.8626 68.8021 12.8496 68.8477 12.8496C68.9453 12.8496 69.0169 12.8822 69.0625 12.9473C69.1081 13.0124 69.1374 13.0807 69.1504 13.1523L69.5117 16.4922V16.8145C69.5117 16.8405 69.4922 16.8535 69.4531 16.8535H69.1309C69.0983 16.8535 69.0755 16.8438 69.0625 16.8242C69.0495 16.8112 69.0365 16.7656 69.0234 16.6875C69.0104 16.6029 68.9974 16.5312 68.9844 16.4727C68.9388 16.2708 68.8965 16.0625 68.8574 15.8477C68.8184 15.6263 68.7598 15.4212 68.6816 15.2324C68.6035 15.0436 68.4961 14.8809 68.3594 14.7441C68.2227 14.6009 68.0339 14.5033 67.793 14.4512H64.4727C64.3945 14.4642 64.3262 14.4805 64.2676 14.5C64.2155 14.513 64.1895 14.5879 64.1895 14.7246V25.0957C64.1895 25.291 64.2383 25.4668 64.3359 25.623C64.4336 25.7728 64.5638 25.9062 64.7266 26.0234C64.8958 26.1406 65.0911 26.235 65.3125 26.3066C65.5404 26.3783 65.7812 26.4271 66.0352 26.4531C66.1068 26.4596 66.1979 26.4629 66.3086 26.4629C66.4193 26.4629 66.5137 26.4629 66.5918 26.4629C66.6243 26.4629 66.6439 26.4727 66.6504 26.4922C66.6634 26.5117 66.6699 26.528 66.6699 26.541V26.9219C66.6699 26.9349 66.6634 26.9512 66.6504 26.9707C66.6439 26.9902 66.6243 27 66.5918 27H59.0039C58.9714 27 58.9486 26.9902 58.9355 26.9707C58.929 26.9512 58.9258 26.9349 58.9258 26.9219V26.541C58.9258 26.528 58.929 26.5117 58.9355 26.4922C58.9486 26.4727 58.9714 26.4629 59.0039 26.4629C59.0755 26.4629 59.1667 26.4629 59.2773 26.4629C59.3945 26.4629 59.4889 26.4596 59.5605 26.4531C59.8145 26.4271 60.0521 26.3783 60.2734 26.3066C60.5013 26.235 60.6966 26.1406 60.8594 26.0234C61.0286 25.9062 61.1621 25.7728 61.2598 25.623C61.3574 25.4668 61.4062 25.291 61.4062 25.0957V14.7246ZM70.5664 26.4922C70.5664 26.4857 70.5697 26.4727 70.5762 26.4531C70.5827 26.4271 70.6055 26.4141 70.6445 26.4141C70.6836 26.4141 70.7454 26.4076 70.8301 26.3945C70.9147 26.3815 71.0026 26.3685 71.0938 26.3555C71.1849 26.3424 71.2695 26.3294 71.3477 26.3164C71.4258 26.2969 71.4811 26.2839 71.5137 26.2773C71.8848 26.1927 72.1419 26.056 72.2852 25.8672C72.4349 25.6719 72.5098 25.431 72.5098 25.1445V15.2227C72.5098 14.8971 72.4414 14.64 72.3047 14.4512C72.168 14.2624 72.0085 14.1224 71.8262 14.0312C71.6504 13.9336 71.4779 13.875 71.3086 13.8555C71.1458 13.8294 71.0352 13.8164 70.9766 13.8164H70.6055C70.5729 13.8164 70.5501 13.8066 70.5371 13.7871C70.5306 13.7676 70.5273 13.7513 70.5273 13.7383V13.3086C70.5273 13.2956 70.5306 13.2826 70.5371 13.2695C70.5436 13.25 70.5664 13.237 70.6055 13.2305C70.612 13.2305 70.625 13.2305 70.6445 13.2305C70.6706 13.2305 70.7194 13.2305 70.791 13.2305C70.8626 13.224 70.9668 13.2207 71.1035 13.2207C71.2402 13.2142 71.4323 13.2077 71.6797 13.2012C72.0378 13.1947 72.4186 13.1849 72.8223 13.1719C73.2324 13.1589 73.6458 13.1458 74.0625 13.1328C74.4792 13.1198 74.8893 13.11 75.293 13.1035C75.7031 13.0905 76.0872 13.084 76.4453 13.084H77.4316C77.946 13.084 78.4701 13.1719 79.0039 13.3477C79.5378 13.5234 80.0195 13.7839 80.4492 14.1289C80.8854 14.4674 81.2402 14.8906 81.5137 15.3984C81.7936 15.9062 81.9336 16.4922 81.9336 17.1562C81.9336 17.5859 81.875 17.9701 81.7578 18.3086C81.6406 18.6406 81.4779 18.9368 81.2695 19.1973C81.0677 19.4512 80.8236 19.6758 80.5371 19.8711C80.2572 20.0664 79.9512 20.2389 79.6191 20.3887L82.5781 25.0762C82.832 25.4798 83.1283 25.8477 83.4668 26.1797C83.8053 26.5052 84.1992 26.7331 84.6484 26.8633C84.7005 26.8763 84.7298 26.8958 84.7363 26.9219C84.7493 26.9414 84.7559 26.9674 84.7559 27C84.7559 27.0977 84.7298 27.1628 84.6777 27.1953C84.6257 27.2279 84.5443 27.2441 84.4336 27.2441C84.1602 27.2441 83.8477 27.2246 83.4961 27.1855C83.151 27.153 82.8027 27.0944 82.4512 27.0098C82.0996 26.9316 81.7643 26.8275 81.4453 26.6973C81.1328 26.5671 80.8691 26.4043 80.6543 26.209C80.446 26.0267 80.2344 25.7956 80.0195 25.5156C79.8047 25.2357 79.5866 24.9362 79.3652 24.6172C79.1504 24.2917 78.9355 23.9564 78.7207 23.6113C78.5124 23.2598 78.3073 22.918 78.1055 22.5859C77.9102 22.2539 77.7214 21.9447 77.5391 21.6582C77.3568 21.3717 77.1908 21.1276 77.041 20.9258L75.5176 20.8184C75.5111 20.8184 75.485 20.8184 75.4395 20.8184C75.3939 20.8184 75.3613 20.8249 75.3418 20.8379C75.3223 20.8509 75.3092 20.8639 75.3027 20.877C75.2962 20.89 75.293 20.916 75.293 20.9551V25.1152C75.293 25.291 75.3158 25.444 75.3613 25.5742C75.4069 25.7044 75.4818 25.8184 75.5859 25.916C75.6966 26.0072 75.8366 26.082 76.0059 26.1406C76.1816 26.1992 76.3932 26.2448 76.6406 26.2773C76.6797 26.2839 76.735 26.2936 76.8066 26.3066C76.8848 26.3197 76.9661 26.3359 77.0508 26.3555C77.1419 26.3685 77.2298 26.3815 77.3145 26.3945C77.3991 26.4076 77.4707 26.4141 77.5293 26.4141C77.5684 26.4141 77.5911 26.4238 77.5977 26.4434C77.6042 26.4629 77.6074 26.4792 77.6074 26.4922V26.9219C77.6074 26.9349 77.6009 26.9512 77.5879 26.9707C77.5814 26.9902 77.5618 27 77.5293 27H70.6445C70.612 27 70.5892 26.9544 70.5762 26.8633C70.5697 26.7721 70.5664 26.6875 70.5664 26.6094V26.4922ZM75.3125 19.8418C75.319 19.8939 75.332 19.9427 75.3516 19.9883C75.3776 20.0273 75.4264 20.0501 75.498 20.0566C75.5566 20.0632 75.6445 20.0762 75.7617 20.0957C75.8789 20.1087 76.0417 20.1152 76.25 20.1152C76.8229 20.1152 77.2949 20.0273 77.666 19.8516C78.0371 19.6758 78.3301 19.4414 78.5449 19.1484C78.7598 18.849 78.9062 18.5072 78.9844 18.123C79.069 17.7389 79.1113 17.3385 79.1113 16.9219C79.1113 16.4857 79.043 16.0723 78.9062 15.6816C78.7695 15.291 78.5775 14.9525 78.3301 14.666C78.0892 14.3796 77.7962 14.1517 77.4512 13.9824C77.1126 13.8132 76.7383 13.7285 76.3281 13.7285C76.237 13.7285 76.1654 13.7318 76.1133 13.7383C76.0612 13.7383 76.0091 13.7415 75.957 13.748C75.9115 13.748 75.8561 13.7513 75.791 13.7578C75.7324 13.7578 75.6478 13.7611 75.5371 13.7676C75.498 13.7676 75.446 13.7773 75.3809 13.7969C75.3223 13.8099 75.293 13.8522 75.293 13.9238V19.5488L75.3125 19.8418ZM84.9316 26.541C84.9316 26.4889 84.9577 26.4629 85.0098 26.4629C85.1335 26.4564 85.2767 26.4401 85.4395 26.4141C85.6087 26.3815 85.778 26.3197 85.9473 26.2285C86.123 26.1309 86.2923 25.9909 86.4551 25.8086C86.6178 25.6198 86.7546 25.3626 86.8652 25.0371L90.791 13.6504C90.791 13.6569 90.791 13.6536 90.791 13.6406C90.7975 13.6276 90.8008 13.6146 90.8008 13.6016C90.8008 13.556 90.7812 13.5007 90.7422 13.4355C90.7096 13.3639 90.6934 13.3118 90.6934 13.2793C90.6934 13.2467 90.7064 13.2305 90.7324 13.2305H93.5645C93.5775 13.237 93.5938 13.2435 93.6133 13.25C93.6393 13.2565 93.6589 13.276 93.6719 13.3086L97.8027 24.9004C97.8678 25.0827 97.9297 25.2389 97.9883 25.3691C98.0469 25.4993 98.1152 25.6165 98.1934 25.7207C98.278 25.8184 98.3822 25.9095 98.5059 25.9941C98.6296 26.0723 98.7891 26.1536 98.9844 26.2383C99.0755 26.2839 99.1992 26.3327 99.3555 26.3848C99.5117 26.4368 99.6615 26.4629 99.8047 26.4629C99.8372 26.4629 99.8568 26.4727 99.8633 26.4922C99.8763 26.5117 99.8828 26.5312 99.8828 26.5508V26.9219C99.8828 26.9349 99.8763 26.9512 99.8633 26.9707C99.8568 26.9902 99.8372 27 99.8047 27H92.9492C92.9167 27 92.8939 26.9902 92.8809 26.9707C92.8743 26.9512 92.8711 26.9349 92.8711 26.9219V26.541C92.8711 26.528 92.8743 26.5117 92.8809 26.4922C92.8939 26.4727 92.9167 26.4629 92.9492 26.4629C92.9753 26.4629 93.0013 26.4629 93.0273 26.4629C93.0534 26.4564 93.0729 26.4531 93.0859 26.4531C93.1576 26.4466 93.2585 26.4401 93.3887 26.4336C93.5254 26.4271 93.6719 26.4173 93.8281 26.4043C93.9844 26.3848 94.1406 26.3587 94.2969 26.3262C94.4596 26.2871 94.6061 26.235 94.7363 26.1699C94.8665 26.0983 94.974 26.0072 95.0586 25.8965C95.1432 25.7858 95.1855 25.6491 95.1855 25.4863C95.1855 25.4473 95.179 25.4017 95.166 25.3496L93.8867 21.8242C93.8802 21.8112 93.8672 21.7819 93.8477 21.7363C93.8346 21.6908 93.8086 21.6452 93.7695 21.5996C93.737 21.5475 93.6914 21.502 93.6328 21.4629C93.5807 21.4238 93.5156 21.4043 93.4375 21.4043H89.9121C89.8275 21.4043 89.7559 21.4238 89.6973 21.4629C89.6387 21.502 89.5898 21.5443 89.5508 21.5898C89.5117 21.6354 89.4792 21.681 89.4531 21.7266C89.4336 21.7721 89.4238 21.7982 89.4238 21.8047C89.2155 22.4167 89.0397 22.9342 88.8965 23.3574C88.7533 23.7741 88.6328 24.1191 88.5352 24.3926C88.444 24.666 88.3724 24.8776 88.3203 25.0273C88.2682 25.1771 88.2292 25.2878 88.2031 25.3594C88.1836 25.4245 88.1706 25.4668 88.1641 25.4863C88.1641 25.4993 88.1641 25.5059 88.1641 25.5059C88.1641 25.5254 88.1673 25.5482 88.1738 25.5742C88.1803 25.5938 88.1868 25.6133 88.1934 25.6328C88.2454 25.7956 88.3398 25.9323 88.4766 26.043C88.6198 26.1471 88.7826 26.2318 88.9648 26.2969C89.1471 26.3555 89.3327 26.3978 89.5215 26.4238C89.7168 26.4499 89.8893 26.4629 90.0391 26.4629H90.293C90.3255 26.4629 90.3451 26.4727 90.3516 26.4922C90.3646 26.5117 90.3711 26.528 90.3711 26.541V26.9219C90.3711 26.9349 90.3646 26.9512 90.3516 26.9707C90.3451 26.9902 90.3255 27 90.293 27H85.0098C84.9577 27 84.9316 26.974 84.9316 26.9219V26.541ZM90.0488 19.998C90.0358 20.0306 90.026 20.0632 90.0195 20.0957C90.013 20.1283 90.0098 20.1608 90.0098 20.1934C90.0098 20.2324 90.0195 20.265 90.0391 20.291C90.0586 20.3105 90.0977 20.3203 90.1562 20.3203H93.0859C93.1576 20.3203 93.2031 20.3073 93.2227 20.2812C93.2487 20.2487 93.2617 20.2129 93.2617 20.1738C93.2617 20.1413 93.2585 20.112 93.252 20.0859C93.2454 20.0599 93.2357 20.0306 93.2227 19.998L91.9238 16.4336C91.8913 16.3424 91.8424 16.2773 91.7773 16.2383C91.7122 16.1927 91.6536 16.1699 91.6016 16.1699C91.5495 16.1699 91.4909 16.196 91.4258 16.248C91.3607 16.2936 91.3118 16.3587 91.2793 16.4434L90.0488 19.998ZM100.371 26.4922C100.371 26.4857 100.374 26.4727 100.381 26.4531C100.387 26.4271 100.41 26.4141 100.449 26.4141C100.488 26.4141 100.55 26.4076 100.635 26.3945C100.719 26.3815 100.807 26.3685 100.898 26.3555C100.99 26.3424 101.074 26.3294 101.152 26.3164C101.23 26.2969 101.286 26.2839 101.318 26.2773C101.689 26.1927 101.947 26.056 102.09 25.8672C102.24 25.6719 102.314 25.431 102.314 25.1445V15.2227C102.314 14.8971 102.246 14.64 102.109 14.4512C101.973 14.2624 101.813 14.1224 101.631 14.0312C101.455 13.9336 101.283 13.875 101.113 13.8555C100.951 13.8294 100.84 13.8164 100.781 13.8164H100.41C100.378 13.8164 100.355 13.8066 100.342 13.7871C100.335 13.7676 100.332 13.7513 100.332 13.7383V13.3086C100.332 13.2956 100.335 13.2826 100.342 13.2695C100.348 13.25 100.371 13.237 100.41 13.2305C100.417 13.2305 100.43 13.2305 100.449 13.2305C100.475 13.2305 100.524 13.2305 100.596 13.2305C100.667 13.224 100.771 13.2207 100.908 13.2207C101.045 13.2142 101.237 13.2077 101.484 13.2012C101.842 13.1947 102.223 13.1849 102.627 13.1719C103.037 13.1589 103.451 13.1458 103.867 13.1328C104.284 13.1198 104.694 13.11 105.098 13.1035C105.508 13.0905 105.892 13.084 106.25 13.084H107.236C107.751 13.084 108.275 13.1719 108.809 13.3477C109.342 13.5234 109.824 13.7839 110.254 14.1289C110.69 14.4674 111.045 14.8906 111.318 15.3984C111.598 15.9062 111.738 16.4922 111.738 17.1562C111.738 17.5859 111.68 17.9701 111.562 18.3086C111.445 18.6406 111.283 18.9368 111.074 19.1973C110.872 19.4512 110.628 19.6758 110.342 19.8711C110.062 20.0664 109.756 20.2389 109.424 20.3887L112.383 25.0762C112.637 25.4798 112.933 25.8477 113.271 26.1797C113.61 26.5052 114.004 26.7331 114.453 26.8633C114.505 26.8763 114.535 26.8958 114.541 26.9219C114.554 26.9414 114.561 26.9674 114.561 27C114.561 27.0977 114.535 27.1628 114.482 27.1953C114.43 27.2279 114.349 27.2441 114.238 27.2441C113.965 27.2441 113.652 27.2246 113.301 27.1855C112.956 27.153 112.607 27.0944 112.256 27.0098C111.904 26.9316 111.569 26.8275 111.25 26.6973C110.938 26.5671 110.674 26.4043 110.459 26.209C110.251 26.0267 110.039 25.7956 109.824 25.5156C109.609 25.2357 109.391 24.9362 109.17 24.6172C108.955 24.2917 108.74 23.9564 108.525 23.6113C108.317 23.2598 108.112 22.918 107.91 22.5859C107.715 22.2539 107.526 21.9447 107.344 21.6582C107.161 21.3717 106.995 21.1276 106.846 20.9258L105.322 20.8184C105.316 20.8184 105.29 20.8184 105.244 20.8184C105.199 20.8184 105.166 20.8249 105.146 20.8379C105.127 20.8509 105.114 20.8639 105.107 20.877C105.101 20.89 105.098 20.916 105.098 20.9551V25.1152C105.098 25.291 105.12 25.444 105.166 25.5742C105.212 25.7044 105.286 25.8184 105.391 25.916C105.501 26.0072 105.641 26.082 105.811 26.1406C105.986 26.1992 106.198 26.2448 106.445 26.2773C106.484 26.2839 106.54 26.2936 106.611 26.3066C106.689 26.3197 106.771 26.3359 106.855 26.3555C106.947 26.3685 107.035 26.3815 107.119 26.3945C107.204 26.4076 107.275 26.4141 107.334 26.4141C107.373 26.4141 107.396 26.4238 107.402 26.4434C107.409 26.4629 107.412 26.4792 107.412 26.4922V26.9219C107.412 26.9349 107.406 26.9512 107.393 26.9707C107.386 26.9902 107.367 27 107.334 27H100.449C100.417 27 100.394 26.9544 100.381 26.8633C100.374 26.7721 100.371 26.6875 100.371 26.6094V26.4922ZM105.117 19.8418C105.124 19.8939 105.137 19.9427 105.156 19.9883C105.182 20.0273 105.231 20.0501 105.303 20.0566C105.361 20.0632 105.449 20.0762 105.566 20.0957C105.684 20.1087 105.846 20.1152 106.055 20.1152C106.628 20.1152 107.1 20.0273 107.471 19.8516C107.842 19.6758 108.135 19.4414 108.35 19.1484C108.564 18.849 108.711 18.5072 108.789 18.123C108.874 17.7389 108.916 17.3385 108.916 16.9219C108.916 16.4857 108.848 16.0723 108.711 15.6816C108.574 15.291 108.382 14.9525 108.135 14.666C107.894 14.3796 107.601 14.1517 107.256 13.9824C106.917 13.8132 106.543 13.7285 106.133 13.7285C106.042 13.7285 105.97 13.7318 105.918 13.7383C105.866 13.7383 105.814 13.7415 105.762 13.748C105.716 13.748 105.661 13.7513 105.596 13.7578C105.537 13.7578 105.452 13.7611 105.342 13.7676C105.303 13.7676 105.251 13.7773 105.186 13.7969C105.127 13.8099 105.098 13.8522 105.098 13.9238V19.5488L105.117 19.8418Z" fill="white"/>
<defs>
<filter id="filter0_b_87_3" x="-4" y="-4" width="148" height="51" filterUnits="userSpaceOnUse" color-interpolation-filters="sRGB">
<feFlood flood-opacity="0" result="BackgroundImageFix"/>
<feGaussianBlur in="BackgroundImage" stdDeviation="2"/>
<feComposite in2="SourceAlpha" operator="in" result="effect1_backgroundBlur_87_3"/>
<feBlend mode="normal" in="SourceGraphic" in2="effect1_backgroundBlur_87_3" result="shape"/>
</filter>
</defs>
</svg>
