<svg width="108" height="108" viewBox="0 0 108 108" fill="none" xmlns="http://www.w3.org/2000/svg">
<g opacity="0.45" filter="url(#filter0_d_133_2)">
<circle cx="54" cy="50" r="50" fill="#6DDDF2"/>
</g>
<path d="M47.2129 69C46.7083 69 46.391 68.943 46.2607 68.8291C46.1305 68.7152 46.0654 68.585 46.0654 68.4385V67.1445C46.0654 67.0143 46.1224 66.8923 46.2363 66.7783C46.3665 66.6644 46.6676 66.5993 47.1396 66.583C47.4814 66.583 47.8883 66.583 48.3604 66.583C48.8486 66.5667 49.3288 66.5505 49.8008 66.5342C50.2728 66.5016 50.696 66.4528 51.0703 66.3877C51.4609 66.3063 51.7295 66.2005 51.876 66.0703V41.3877C51.3389 41.7458 50.875 42.0469 50.4844 42.291C50.11 42.5352 49.752 42.7549 49.4102 42.9502C49.0684 43.1292 48.7266 43.3083 48.3848 43.4873C48.043 43.6663 47.6361 43.8779 47.1641 44.1221C47.0827 44.1709 46.9362 44.2441 46.7246 44.3418C46.513 44.4232 46.3421 44.4639 46.2119 44.4639C46.0654 44.4639 45.9434 44.3825 45.8457 44.2197C45.7643 44.0407 45.6016 43.764 45.3574 43.3896C45.3411 43.3571 45.333 43.3164 45.333 43.2676C45.333 43.2025 45.3737 43.1455 45.4551 43.0967C45.5365 43.0316 45.6829 42.9258 45.8945 42.7793C46.3828 42.4701 46.9443 42.055 47.5791 41.5342C48.2139 41.0133 48.8812 40.4274 49.5811 39.7764C50.2972 39.1253 51.0215 38.4255 51.7539 37.6768C52.4863 36.9118 53.1862 36.1305 53.8535 35.333H55.709C56.0182 35.333 56.2624 35.3493 56.4414 35.3818C56.6367 35.3981 56.7832 35.4388 56.8809 35.5039C56.9785 35.5527 57.0355 35.626 57.0518 35.7236C57.0843 35.8213 57.1006 35.9515 57.1006 36.1143V64.0684C57.1006 64.2962 57.1006 64.5322 57.1006 64.7764C57.1169 65.0042 57.125 65.2158 57.125 65.4111C57.1413 65.6064 57.1576 65.7692 57.1738 65.8994C57.2064 66.0296 57.2389 66.0947 57.2715 66.0947C57.4668 66.2249 57.7028 66.3226 57.9795 66.3877C58.2725 66.4528 58.5817 66.5016 58.9072 66.5342C59.249 66.5505 59.599 66.5667 59.957 66.583C60.3314 66.583 60.6976 66.583 61.0557 66.583C61.5602 66.583 61.8776 66.6481 62.0078 66.7783C62.138 66.9085 62.2031 67.0306 62.2031 67.1445V68.4385C62.2031 68.5524 62.138 68.6745 62.0078 68.8047C61.8776 68.9349 61.5602 69 61.0557 69H47.2129Z" fill="black"/>
<defs>
<filter id="filter0_d_133_2" x="0" y="0" width="108" height="108" filterUnits="userSpaceOnUse" color-interpolation-filters="sRGB">
<feFlood flood-opacity="0" result="BackgroundImageFix"/>
<feColorMatrix in="SourceAlpha" type="matrix" values="0 0 0 0 0 0 0 0 0 0 0 0 0 0 0 0 0 0 127 0" result="hardAlpha"/>
<feOffset dy="4"/>
<feGaussianBlur stdDeviation="2"/>
<feComposite in2="hardAlpha" operator="out"/>
<feColorMatrix type="matrix" values="0 0 0 0 0 0 0 0 0 0 0 0 0 0 0 0 0 0 0.25 0"/>
<feBlend mode="normal" in2="BackgroundImageFix" result="effect1_dropShadow_133_2"/>
<feBlend mode="normal" in="SourceGraphic" in2="effect1_dropShadow_133_2" result="shape"/>
</filter>
</defs>
</svg>
