<svg width="108" height="108" viewBox="0 0 108 108" fill="none" xmlns="http://www.w3.org/2000/svg">
<g opacity="0.45" filter="url(#filter0_d_133_3)">
<circle cx="54" cy="50" r="50" fill="#6DDDF2"/>
</g>
<path d="M43.624 69C43.3473 69 43.1357 68.9919 42.9893 68.9756C42.859 68.9593 42.7533 68.9186 42.6719 68.8535C42.6068 68.7884 42.5661 68.6908 42.5498 68.5605C42.5498 68.4303 42.5498 68.2513 42.5498 68.0234C42.5498 67.7467 42.6475 67.4782 42.8428 67.2178C43.0381 66.9574 43.2741 66.6644 43.5508 66.3389C44.332 65.4111 45.1784 64.4834 46.0898 63.5557C47.0013 62.6279 47.9209 61.7002 48.8486 60.7725C50.0856 59.5355 51.2738 58.2904 52.4131 57.0371C53.5524 55.7839 54.5534 54.5387 55.416 53.3018C56.2949 52.0648 56.9867 50.8441 57.4912 49.6396C58.012 48.4189 58.2725 47.2227 58.2725 46.0508C58.2725 45.1719 58.1097 44.3092 57.7842 43.4629C57.4749 42.6003 57.0518 41.8353 56.5146 41.168C55.9775 40.5007 55.3509 39.9635 54.6348 39.5566C53.9349 39.1497 53.1943 38.9463 52.4131 38.9463C51.5667 38.9463 50.7692 39.109 50.0205 39.4346C49.2881 39.7601 48.6208 40.1995 48.0186 40.7529C47.4163 41.29 46.9036 41.9167 46.4805 42.6328C46.0736 43.3327 45.7806 44.057 45.6016 44.8057C45.5527 44.9847 45.512 45.1556 45.4795 45.3184C45.4469 45.4648 45.39 45.5951 45.3086 45.709C45.2272 45.8066 45.097 45.888 44.918 45.9531C44.7389 46.0182 44.4948 46.0508 44.1855 46.0508H43.9658C43.738 46.0508 43.5589 46.0264 43.4287 45.9775C43.3148 45.9124 43.2578 45.766 43.2578 45.5381C43.2578 45.4567 43.2904 45.1556 43.3555 44.6348C43.4368 44.1139 43.5671 43.5117 43.7461 42.8281C43.9414 42.1445 44.1937 41.4447 44.5029 40.7285C44.8285 39.9961 45.2354 39.3857 45.7236 38.8975H45.6992C46.3665 38.2139 47.0176 37.6442 47.6523 37.1885C48.3034 36.7327 48.9544 36.3665 49.6055 36.0898C50.2728 35.8132 50.9482 35.6178 51.6318 35.5039C52.3317 35.3737 53.0723 35.3086 53.8535 35.3086C55.4323 35.3086 56.8646 35.5609 58.1504 36.0654C59.4525 36.57 60.5592 37.2699 61.4707 38.165C62.3984 39.0439 63.1064 40.0856 63.5947 41.29C64.0993 42.4945 64.3516 43.7965 64.3516 45.1963C64.3516 46.2054 64.1237 47.2145 63.668 48.2236C63.2122 49.2165 62.5693 50.2337 61.7393 51.2754C60.9255 52.3171 59.9408 53.3831 58.7852 54.4736C57.6458 55.5479 56.3844 56.679 55.001 57.8672C54.8545 57.9811 54.6185 58.1927 54.293 58.502C53.9674 58.8112 53.585 59.1774 53.1455 59.6006C52.7223 60.0075 52.2666 60.4551 51.7783 60.9434C51.29 61.4154 50.818 61.8792 50.3623 62.335C49.9229 62.7907 49.516 63.2139 49.1416 63.6045C48.7673 63.9951 48.4824 64.3125 48.2871 64.5566H61.5439C61.902 64.5566 62.195 64.5078 62.4229 64.4102C62.6507 64.2962 62.846 64.109 63.0088 63.8486C63.1878 63.5719 63.3506 63.2057 63.4971 62.75C63.6436 62.2943 63.8063 61.7246 63.9854 61.041H65.5723L64.4492 67.9258C64.4004 68.1536 64.262 68.3896 64.0342 68.6338C63.8063 68.8779 63.4076 69 62.8379 69H43.624Z" fill="black"/>
<defs>
<filter id="filter0_d_133_3" x="0" y="0" width="108" height="108" filterUnits="userSpaceOnUse" color-interpolation-filters="sRGB">
<feFlood flood-opacity="0" result="BackgroundImageFix"/>
<feColorMatrix in="SourceAlpha" type="matrix" values="0 0 0 0 0 0 0 0 0 0 0 0 0 0 0 0 0 0 127 0" result="hardAlpha"/>
<feOffset dy="4"/>
<feGaussianBlur stdDeviation="2"/>
<feComposite in2="hardAlpha" operator="out"/>
<feColorMatrix type="matrix" values="0 0 0 0 0 0 0 0 0 0 0 0 0 0 0 0 0 0 0.25 0"/>
<feBlend mode="normal" in2="BackgroundImageFix" result="effect1_dropShadow_133_3"/>
<feBlend mode="normal" in="SourceGraphic" in2="effect1_dropShadow_133_3" result="shape"/>
</filter>
</defs>
</svg>
