<svg width="108" height="108" viewBox="0 0 108 108" fill="none" xmlns="http://www.w3.org/2000/svg">
<g opacity="0.45" filter="url(#filter0_d_133_4)">
<circle cx="54" cy="50" r="50" fill="#6DDDF2"/>
</g>
<path d="M51.5586 69.6348C51.054 69.6348 50.4762 69.6185 49.8252 69.5859C49.1742 69.5697 48.5068 69.5127 47.8232 69.415C47.1396 69.3174 46.4723 69.179 45.8213 69C45.1702 68.8372 44.5843 68.6175 44.0635 68.3408C43.5589 68.0479 43.152 67.6898 42.8428 67.2666C42.5335 66.8434 42.3789 66.3389 42.3789 65.7529C42.3789 65.3949 42.4603 65.0775 42.623 64.8008C42.7858 64.5241 43.0055 64.2962 43.2822 64.1172C43.5589 63.9382 43.8682 63.7998 44.21 63.7021C44.568 63.6045 44.9424 63.5557 45.333 63.5557C45.7887 63.5557 46.2119 63.6533 46.6025 63.8486C47.0094 64.0439 47.3919 64.2881 47.75 64.5811C48.1243 64.8577 48.4906 65.167 48.8486 65.5088C49.2067 65.8343 49.5811 66.1436 49.9717 66.4365C50.3623 66.7132 50.7773 66.9492 51.2168 67.1445C51.6562 67.3398 52.1364 67.4375 52.6572 67.4375C53.6175 67.3561 54.4639 67.0225 55.1963 66.4365C55.9287 65.8506 56.5391 65.1263 57.0273 64.2637C57.5156 63.3848 57.8818 62.4326 58.126 61.4072C58.3701 60.3656 58.4922 59.3564 58.4922 58.3799C58.4922 57.1755 58.3538 56.1501 58.0771 55.3037C57.8005 54.4574 57.4505 53.7656 57.0273 53.2285C56.6204 52.6914 56.1647 52.3008 55.6602 52.0566C55.1556 51.7962 54.6755 51.666 54.2197 51.666C53.8454 51.666 53.5199 51.7067 53.2432 51.7881C52.9665 51.8695 52.7223 51.9671 52.5107 52.0811C52.2992 52.1787 52.1201 52.2926 51.9736 52.4229C51.8271 52.5368 51.6888 52.6344 51.5586 52.7158C51.4447 52.7972 51.3226 52.8623 51.1924 52.9111C51.0622 52.96 50.8587 52.9844 50.582 52.9844C50.2891 52.9844 50.0531 52.8786 49.874 52.667C49.7113 52.4391 49.6299 52.2357 49.6299 52.0566C49.6299 51.959 49.7275 51.7962 49.9229 51.5684C50.1344 51.3242 50.3298 51.1208 50.5088 50.958C51.0947 50.4372 51.7051 49.8512 52.3398 49.2002C52.9909 48.5492 53.5768 47.8656 54.0977 47.1494C54.6185 46.4333 55.0498 45.7008 55.3916 44.9521C55.7334 44.2035 55.9043 43.4629 55.9043 42.7305C55.9043 42.1771 55.7904 41.6481 55.5625 41.1436C55.3509 40.6227 55.0579 40.1589 54.6836 39.752C54.3255 39.3451 53.9105 39.0195 53.4385 38.7754C52.9827 38.5312 52.5107 38.4092 52.0225 38.4092C51.0947 38.4092 50.2809 38.5719 49.5811 38.8975C48.8812 39.2067 48.279 39.5973 47.7744 40.0693C47.2699 40.5413 46.8467 41.0459 46.5049 41.583C46.1631 42.1038 45.8783 42.5758 45.6504 42.999C45.5527 43.1781 45.4388 43.292 45.3086 43.3408C45.1947 43.3896 45.04 43.4141 44.8447 43.4141C44.7633 43.4141 44.6576 43.3978 44.5273 43.3652C44.4134 43.3327 44.2995 43.2839 44.1855 43.2188C44.0716 43.1536 43.974 43.0723 43.8926 42.9746C43.8112 42.877 43.7705 42.763 43.7705 42.6328C43.7705 42.6491 43.7786 42.6247 43.7949 42.5596C43.8275 42.4945 43.86 42.4212 43.8926 42.3398C43.9251 42.2585 43.9658 42.1608 44.0146 42.0469C44.4215 41.0703 44.9505 40.167 45.6016 39.3369C46.2689 38.5068 47.0013 37.7988 47.7988 37.2129C48.5964 36.6107 49.4427 36.1468 50.3379 35.8213C51.2331 35.4795 52.1283 35.3086 53.0234 35.3086C54.3092 35.3086 55.473 35.4388 56.5146 35.6992C57.5563 35.9596 58.4515 36.3421 59.2002 36.8467C59.9489 37.3512 60.5267 37.9779 60.9336 38.7266C61.3405 39.459 61.5439 40.3053 61.5439 41.2656C61.5439 41.998 61.3893 42.6979 61.0801 43.3652C60.7871 44.0326 60.3965 44.6755 59.9082 45.2939C59.4362 45.8962 58.891 46.4658 58.2725 47.0029C57.6702 47.54 57.0518 48.0283 56.417 48.4678C57.8493 48.6143 59.0781 48.9561 60.1035 49.4932C61.1289 50.0303 61.9671 50.7057 62.6182 51.5195C63.2855 52.3171 63.7738 53.2204 64.083 54.2295C64.3923 55.2386 64.5469 56.2803 64.5469 57.3545C64.5469 58.5589 64.3516 59.7064 63.9609 60.7969C63.5703 61.8711 63.0495 62.8639 62.3984 63.7754C61.7474 64.6706 60.9824 65.4844 60.1035 66.2168C59.2409 66.9329 58.3294 67.5514 57.3691 68.0723C56.4089 68.5768 55.4242 68.9593 54.415 69.2197C53.4222 69.4964 52.4701 69.6348 51.5586 69.6348Z" fill="black"/>
<defs>
<filter id="filter0_d_133_4" x="0" y="0" width="108" height="108" filterUnits="userSpaceOnUse" color-interpolation-filters="sRGB">
<feFlood flood-opacity="0" result="BackgroundImageFix"/>
<feColorMatrix in="SourceAlpha" type="matrix" values="0 0 0 0 0 0 0 0 0 0 0 0 0 0 0 0 0 0 127 0" result="hardAlpha"/>
<feOffset dy="4"/>
<feGaussianBlur stdDeviation="2"/>
<feComposite in2="hardAlpha" operator="out"/>
<feColorMatrix type="matrix" values="0 0 0 0 0 0 0 0 0 0 0 0 0 0 0 0 0 0 0.25 0"/>
<feBlend mode="normal" in2="BackgroundImageFix" result="effect1_dropShadow_133_4"/>
<feBlend mode="normal" in="SourceGraphic" in2="effect1_dropShadow_133_4" result="shape"/>
</filter>
</defs>
</svg>
